 <svg  version="1.0" xmlns="http://www.w3.org/2000/svg"  width="300.000000pt" height="350.000000pt" viewBox="0 0 300.000000 350.000000"  preserveAspectRatio="xMidYMid meet">  <g transform="translate(0.000000,350.000000) scale(0.050000,-0.050000)" fill="#ffffff" stroke="none"> <path d="M3530 6376 c-1164 -833 -1790 -1722 -1790 -2541 0 -349 77 -502 433 -862 552 -561 440 -871 -381 -1045 l-157 -33 13 -147 c39 -423 210 -667 525 -747 46 -12 88 -35 94 -51 59 -152 313 -185 560 -71 788 362 1188 1120 872 1651 -33 55 -88 158 -122 229 -85 179 -185 319 -385 541 -195 217 -208 253 -164 446 85 363 344 658 840 954 279 167 300 195 309 410 11 268 -62 530 -203 728 -36 50 -94 153 -129 227 -55 118 -217 352 -245 353 -5 1 -37 -19 -70 -42z m89 -219 c117 -126 213 -494 196 -752 -11 -174 -24 -192 -233 -314 -522 -306 -818 -633 -922 -1016 -59 -222 25 -440 287 -735 388 -439 457 -546 493 -770 84 -515 -436 -1177 -1084 -1381 -222 -69 -430 68 -514 338 -60 194 -57 227 23 243 483 96 815 358 815 643 0 225 -59 327 -390 667 -331 340 -380 438 -379 750 3 727 536 1537 1479 2248 184 138 176 136 229 79z m345 -1068 c-6 -52 -17 -68 -37 -60 -17 6 -24 2 -16 -11 15 -24 -66 -118 -102 -118 -13 0 -35 -13 -49 -30 -14 -16 -38 -30 -53 -30 -16 0 -49 -21 -73 -46 -24 -26 -76 -66 -115 -89 -39 -24 -93 -62 -120 -86 -27 -23 -58 -48 -69 -56 -28 -18 -209 -220 -277 -309 -32 -41 -72 -74 -90 -74 -23 -1 -26 -5 -9 -16 18 -11 14 -31 -17 -75 -23 -32 -36 -43 -30 -24 7 20 2 35 -13 35 -17 1 -16 5 3 18 14 9 25 22 23 30 -9 36 27 132 61 163 22 19 39 44 39 54 0 29 114 154 128 140 7 -6 12 2 12 18 0 49 252 244 287 223 10 -7 13 -2 6 10 -11 18 64 80 82 67 18 -12 45 1 35 17 -11 18 15 29 55 22 8 -1 15 13 15 31 0 19 6 28 13 20 17 -16 194 114 273 202 23 25 42 45 44 45 1 0 -2 -32 -6 -71z m-443 -3296 c-14 -36 -30 -50 -46 -41 -14 8 -18 7 -10 -2 8 -9 5 -28 -8 -43 -12 -15 -16 -27 -8 -27 7 0 -2 -27 -22 -59 -19 -32 -42 -54 -51 -49 -9 6 -17 1 -18 -11 -5 -40 -9 -51 -25 -76 -9 -14 -26 -20 -39 -12 -13 7 -17 6 -9 -3 19 -21 -62 -110 -100 -110 -15 0 -23 -7 -17 -16 22 -36 -209 -189 -260 -173 -26 9 -30 7 -12 -6 18 -13 2 -28 -60 -54 -47 -19 -102 -43 -121 -53 -48 -25 -94 -23 -55 2 17 11 22 20 11 20 -10 0 57 50 150 110 281 184 290 190 271 190 -11 0 2 22 27 49 26 28 56 44 67 37 11 -7 15 -3 8 8 -7 10 27 58 76 106 49 48 83 96 76 106 -7 11 -3 14 9 7 11 -7 25 6 31 29 7 25 21 36 34 28 13 -8 20 -3 17 13 -3 15 17 60 44 101 56 85 82 39 40 -71z"/> </g> </svg> 